<svg width="26" height="26" viewBox="0 0 26 26" fill="none" xmlns="http://www.w3.org/2000/svg">
<path d="M9.28418 2.9484C10.1845 0.648557 13.2311 0.30416 14.6017 2.34728C15.2177 3.26555 16.2684 3.77563 17.3542 3.6835L21.1294 3.36319C24.6792 3.06201 26.4197 7.67936 23.5893 9.88898L22.7493 10.5448C21.3468 11.6397 21.3137 13.7858 22.6817 14.9253L22.9618 15.1586C25.163 16.9921 23.3841 20.6 20.632 19.8838C19.2405 19.5216 17.8197 20.3571 17.4271 21.7684L17.2293 22.4794C16.2943 25.8406 11.6318 25.84 10.6977 22.4786L10.5013 21.7719C10.0838 20.2697 8.74118 19.2332 7.21286 19.2332H6.35574C4.34595 19.2332 2.97259 17.1579 3.72119 15.2521L3.81431 15.0151C4.32563 13.7134 3.74808 12.2306 2.50119 11.6439C0.0475019 10.4894 0.766121 6.74563 3.46485 6.62362L5.88508 6.5142C7.12658 6.45807 8.22091 5.66443 8.68245 4.48549L9.28418 2.9484Z" fill="#D9D9D9"/>
<path d="M9.28418 2.9484C10.1845 0.648557 13.2311 0.30416 14.6017 2.34728C15.2177 3.26555 16.2684 3.77563 17.3542 3.6835L21.1294 3.36319C24.6792 3.06201 26.4197 7.67936 23.5893 9.88898L22.7493 10.5448C21.3468 11.6397 21.3137 13.7858 22.6817 14.9253L22.9618 15.1586C25.163 16.9921 23.3841 20.6 20.632 19.8838C19.2405 19.5216 17.8197 20.3571 17.4271 21.7684L17.2293 22.4794C16.2943 25.8406 11.6318 25.84 10.6977 22.4786L10.5013 21.7719C10.0838 20.2697 8.74118 19.2332 7.21286 19.2332H6.35574C4.34595 19.2332 2.97259 17.1579 3.72119 15.2521L3.81431 15.0151C4.32563 13.7134 3.74808 12.2306 2.50119 11.6439C0.0475019 10.4894 0.766121 6.74563 3.46485 6.62362L5.88508 6.5142C7.12658 6.45807 8.22091 5.66443 8.68245 4.48549L9.28418 2.9484Z" fill="#D9D9D9"/>
<path d="M15.376 15.1262C13.4978 17.0453 10.5907 17.1864 8.88271 15.4412C7.17475 13.6961 7.31276 10.7256 9.19097 8.80652C11.0692 6.88742 13.9763 6.74641 15.6843 8.49155C17.3923 10.2367 17.2543 13.2072 15.376 15.1262Z" fill="#FFB22D"/>
<path d="M9.28418 2.9484C10.1845 0.648557 13.2311 0.30416 14.6017 2.34728C15.2177 3.26555 16.2684 3.77563 17.3542 3.6835L21.1294 3.36319C24.6792 3.06201 26.4197 7.67936 23.5893 9.88898L22.7493 10.5448C21.3468 11.6397 21.3137 13.7858 22.6817 14.9253L22.9618 15.1586C25.163 16.9921 23.3841 20.6 20.632 19.8838C19.2405 19.5216 17.8197 20.3571 17.4271 21.7684L17.2293 22.4794C16.2943 25.8406 11.6318 25.84 10.6977 22.4786L10.5013 21.7719C10.0838 20.2697 8.74118 19.2332 7.21286 19.2332H6.35574C4.34595 19.2332 2.97259 17.1579 3.72119 15.2521L3.81431 15.0151C4.32563 13.7134 3.74808 12.2306 2.50119 11.6439C0.0475019 10.4894 0.766121 6.74563 3.46485 6.62362L5.88508 6.5142C7.12658 6.45807 8.22091 5.66443 8.68245 4.48549L9.28418 2.9484Z" stroke="black"/>
<path d="M9.28418 2.9484C10.1845 0.648557 13.2311 0.30416 14.6017 2.34728C15.2177 3.26555 16.2684 3.77563 17.3542 3.6835L21.1294 3.36319C24.6792 3.06201 26.4197 7.67936 23.5893 9.88898L22.7493 10.5448C21.3468 11.6397 21.3137 13.7858 22.6817 14.9253L22.9618 15.1586C25.163 16.9921 23.3841 20.6 20.632 19.8838C19.2405 19.5216 17.8197 20.3571 17.4271 21.7684L17.2293 22.4794C16.2943 25.8406 11.6318 25.84 10.6977 22.4786L10.5013 21.7719C10.0838 20.2697 8.74118 19.2332 7.21286 19.2332H6.35574C4.34595 19.2332 2.97259 17.1579 3.72119 15.2521L3.81431 15.0151C4.32563 13.7134 3.74808 12.2306 2.50119 11.6439C0.0475019 10.4894 0.766121 6.74563 3.46485 6.62362L5.88508 6.5142C7.12658 6.45807 8.22091 5.66443 8.68245 4.48549L9.28418 2.9484Z" stroke="black"/>
<path d="M15.376 15.1262C13.4978 17.0453 10.5907 17.1864 8.88271 15.4412C7.17475 13.6961 7.31276 10.7256 9.19097 8.80652C11.0692 6.88742 13.9763 6.74641 15.6843 8.49155C17.3923 10.2367 17.2543 13.2072 15.376 15.1262Z" stroke="black"/>
</svg>
