<?xml version="1.0" encoding="iso-8859-1"?>
<!-- Uploaded to: SVG Repo, www.svgrepo.com, Generator: SVG Repo Mixer Tools -->
<svg fill="#000000" height="800px" width="800px" version="1.1" id="Layer_1" xmlns="http://www.w3.org/2000/svg" xmlns:xlink="http://www.w3.org/1999/xlink" 
	 viewBox="0 0 511.998 511.998" xml:space="preserve">
<g>
	<g>
		<path d="M463.547,48.382c-64.504-64.501-169.459-64.5-233.963,0.003l-3.183,3.184c-28.447-6.662-58.27-6.296-86.543,1.093
			c-30.606,8-58.671,24.117-81.159,46.608c-23.875,23.874-40.449,53.81-47.931,86.574c-7.052,30.876-5.827,63.049,3.524,93.24
			c-27.814,62.3-14.291,136.065,34.103,184.452c31.242,31.248,72.786,48.457,116.977,48.456c44.189,0,85.732-17.206,116.976-48.449
			l13.054-13.054l-10.754-10.754l-13.053,13.054c-28.373,28.371-66.097,43.996-106.223,43.996
			c-40.128,0.001-77.852-15.626-106.223-44.001C14.557,408.196,2.567,339.885,29.314,282.798l1.28-2.73l-0.941-2.865
			c-9.315-28.391-10.72-58.812-4.06-87.973c6.844-29.97,22.01-57.359,43.859-79.207c20.581-20.583,46.256-35.33,74.251-42.646
			c27.176-7.104,55.92-7.117,83.125-0.036l4.214,1.096l9.295-9.295C298.91,0.565,394.219,0.565,452.792,59.138
			c28.373,28.372,43.999,66.097,43.999,106.225c0,40.128-15.627,77.854-44.002,106.227L298.985,425.394l10.754,10.754
			l153.802-153.803c31.247-31.246,48.455-72.792,48.456-116.982C512,121.172,494.791,79.628,463.547,48.382z"/>
	</g>
</g>
<g>
	<g>
		<path d="M252.077,159.273c-17.815-17.814-41.499-27.625-66.689-27.625c-25.189,0-48.873,9.81-66.687,27.621
			c-36.773,36.774-36.774,96.61-0.003,133.383c17.816,17.813,41.5,27.624,66.688,27.624c25.191,0,48.876-9.812,66.692-27.629
			C288.847,255.874,288.847,196.043,252.077,159.273z M241.324,281.893c-14.943,14.943-34.809,23.174-55.938,23.174
			c-21.127,0-40.993-8.229-55.935-23.169c-30.842-30.844-30.841-81.031,0.002-111.875c14.942-14.939,34.807-23.168,55.934-23.168
			c21.128,0,40.994,8.229,55.936,23.171C272.164,200.867,272.164,251.05,241.324,281.893z"/>
	</g>
</g>
<g>
	<g>
		<path d="M230.569,180.78c-12.067-12.066-28.112-18.713-45.178-18.715l-0.002,15.208c13.005,0.002,25.231,5.066,34.426,14.261
			c9.196,9.196,14.26,21.422,14.26,34.43h15.208C249.283,208.893,242.638,192.847,230.569,180.78z"/>
	</g>
</g>
<g>
	<g>
		<path d="M462.518,195.73c-5.313,20.436-16.113,39.23-31.236,54.352l10.754,10.754c17.035-17.036,29.208-38.226,35.202-61.28
			L462.518,195.73z"/>
	</g>
</g>
<g>
	<g>
		<path d="M442.039,69.889c-25.5-25.499-59.407-39.543-95.471-39.543v15.208c32.003,0,62.089,12.461,84.718,35.088
			c22.628,22.629,35.089,52.715,35.089,84.719c0,3.864-0.186,7.762-0.549,11.589l15.139,1.442c0.41-4.304,0.617-8.688,0.617-13.03
			C481.583,129.297,467.539,95.39,442.039,69.889z"/>
	</g>
</g>
</svg>